<svg width="30" height="30" viewBox="0 0 30 30" fill="none" xmlns="http://www.w3.org/2000/svg">
<path d="M11.25 0.521199C11.433 0.743598 11.5452 1.01577 11.5719 1.30255C11.5986 1.58934 11.5388 1.87755 11.4 2.12995C10.316 4.12021 9.74988 6.35112 9.75375 8.61745C9.75375 16.1568 15.9 22.2618 23.475 22.2618C24.4631 22.2618 25.425 22.1587 26.3494 21.9618C26.6327 21.9005 26.9279 21.9239 27.198 22.0293C27.4681 22.1347 27.7012 22.3173 27.8681 22.5543C28.0444 22.8008 28.1342 23.0986 28.1237 23.4014C28.1132 23.7042 28.0029 23.995 27.81 24.2287C26.3394 26.0351 24.4842 27.4906 22.3797 28.489C20.2752 29.4875 17.9743 30.0036 15.645 29.9999C7.00125 29.9999 0 23.0362 0 14.4562C0 7.9987 3.96375 2.45995 9.6075 0.112449C9.88863 -0.00636594 10.2007 -0.0307522 10.4969 0.0429537C10.7931 0.11666 11.0573 0.284478 11.25 0.521199Z" fill="#C6BBD4"/>
</svg>
