<svg width="20" height="20" viewBox="0 0 20 20" fill="none" xmlns="http://www.w3.org/2000/svg">
<g clip-path="url(#clip0_56_403)">
<path d="M6.69273 6.39875L9.42273 0.99C9.47516 0.881192 9.55709 0.789292 9.65918 0.724762C9.76128 0.660232 9.87945 0.625667 10.0002 0.625C10.229 0.625 10.4577 0.74625 10.5815 0.99L13.3115 6.39875L19.434 7.26875C19.5866 7.29274 19.7263 7.36864 19.8294 7.48363C19.9326 7.59863 19.9929 7.74569 20.0002 7.9C20.009 8.00273 19.9944 8.10611 19.9576 8.20242C19.9208 8.29874 19.8627 8.3855 19.7877 8.45625L15.384 12.6512L16.4215 18.5637C16.519 19.1175 15.9715 19.5512 15.489 19.3037L10.0002 16.4837L4.51398 19.3037C4.45659 19.3335 4.39508 19.3546 4.33148 19.3662C3.90398 19.4412 3.49648 19.0487 3.58148 18.5637L4.61898 12.6512L0.216478 8.45625C0.148035 8.3915 0.0936328 8.31337 0.0566476 8.22671C0.0196623 8.14005 0.000884098 8.04672 0.00147853 7.9525C0.00154354 7.81929 0.0383052 7.68868 0.107729 7.575C0.156977 7.49259 0.224102 7.42228 0.304151 7.36928C0.3842 7.31627 0.475129 7.28192 0.570228 7.26875L6.69273 6.39875ZM10.0002 15.0337C10.1011 15.0333 10.2006 15.0573 10.2902 15.1037L14.8977 17.4712L14.0302 12.525C14.0097 12.4112 14.0175 12.2942 14.0528 12.1841C14.0881 12.0741 14.1499 11.9744 14.2327 11.8937L17.8665 8.43125L12.8015 7.71125C12.6966 7.69541 12.5971 7.65439 12.5116 7.59169C12.426 7.52899 12.3569 7.44649 12.3102 7.35125L10.0015 2.77875L10.0002 2.7825V15.0325V15.0337Z" fill="#FFC700"/>
</g>
<defs>
<clipPath id="clip0_56_403">
<rect width="20" height="20" fill="white"/>
</clipPath>
</defs>
</svg>
