<svg width="20" height="20" viewBox="0 0 20 20" fill="none" xmlns="http://www.w3.org/2000/svg">
<g clip-path="url(#clip0_56_406)">
<path d="M3.58228 18.5625C3.48478 19.1175 4.03228 19.5512 4.51478 19.3037L10.0023 16.4837L15.4885 19.3037C15.971 19.5512 16.5185 19.1175 16.421 18.5637L15.3835 12.6512L19.786 8.45621C20.1985 8.06371 19.986 7.34622 19.4335 7.26871L13.311 6.39872L10.581 0.989965C10.529 0.880326 10.447 0.787694 10.3444 0.72283C10.2419 0.657967 10.123 0.623535 10.0017 0.623535C9.88031 0.623535 9.76145 0.657967 9.65889 0.72283C9.55634 0.787694 9.47429 0.880326 9.42228 0.989965L6.69228 6.39996L0.569782 7.26997C0.0185316 7.34747 -0.195218 8.06496 0.216032 8.45746L4.61978 12.6525L3.58228 18.565V18.5625ZM9.71353 15.1037L5.10603 17.4712L5.97353 12.525C5.99385 12.4111 5.9859 12.294 5.95038 12.1839C5.91485 12.0739 5.85284 11.9742 5.76978 11.8937L2.13728 8.43121L7.20228 7.71122C7.30716 7.69538 7.40664 7.65435 7.4922 7.59165C7.57775 7.52896 7.64684 7.44645 7.69353 7.35122L9.99978 2.77871L12.3085 7.35122C12.3552 7.44645 12.4243 7.52896 12.5099 7.59165C12.5954 7.65435 12.6949 7.69538 12.7998 7.71122L17.8648 8.42997L14.2323 11.8925C14.149 11.9731 14.0869 12.0729 14.0514 12.1833C14.0158 12.2936 14.008 12.4109 14.0285 12.525L14.896 17.4712L10.2885 15.1037C10.1994 15.0578 10.1006 15.0338 10.0004 15.0338C9.90017 15.0338 9.80138 15.0578 9.71228 15.1037H9.71353Z" fill="#FFC700"/>
</g>
<defs>
<clipPath id="clip0_56_406">
<rect width="20" height="20" fill="white"/>
</clipPath>
</defs>
</svg>
