<svg width="24" height="28" viewBox="0 0 24 28" fill="none" xmlns="http://www.w3.org/2000/svg">
<path d="M21.4286 1.75H2.57143C1.15125 1.75 0 2.92523 0 4.375V23.625C0 25.0748 1.15125 26.25 2.57143 26.25H21.4286C22.8488 26.25 24 25.0748 24 23.625V4.375C24 2.92523 22.8488 1.75 21.4286 1.75ZM21.4286 23.625H2.57143V4.375H21.4286V23.625ZM19.5073 10.4057L10.2614 19.7684C10.0094 20.0237 9.60236 20.022 9.35234 19.7647L4.48907 14.7599C4.23905 14.5026 4.24066 14.0871 4.49277 13.8318L5.70986 12.5994C5.96191 12.3442 6.36895 12.3458 6.61896 12.6032L9.82211 15.8996L17.3945 8.23151C17.6466 7.97628 18.0536 7.97792 18.3036 8.23523L19.5109 9.47762C19.7609 9.73498 19.7593 10.1505 19.5073 10.4057Z" fill="#A19EF9"/>
</svg>
