<svg width="31" height="35" viewBox="0 0 31 35" fill="none" xmlns="http://www.w3.org/2000/svg">
<g clip-path="url(#clip0_45_538)">
<path d="M27.1739 2.1875H3.26087C2.39603 2.1875 1.56662 2.5332 0.955087 3.14856C0.343555 3.76391 0 4.59851 0 5.46875L0 29.5312C0 30.4015 0.343555 31.2361 0.955087 31.8514C1.56662 32.4668 2.39603 32.8125 3.26087 32.8125H12.5849V22.4007H8.30503V17.5H12.5849V13.7648C12.5849 9.51631 15.0985 7.16953 18.9484 7.16953C20.7921 7.16953 22.7201 7.50039 22.7201 7.50039V11.6703H20.5958C18.5027 11.6703 17.8499 12.9773 17.8499 14.3179V17.5H22.5224L21.7751 22.4007H17.8499V32.8125H27.1739C28.0387 32.8125 28.8682 32.4668 29.4797 31.8514C30.0912 31.2361 30.4348 30.4015 30.4348 29.5312V5.46875C30.4348 4.59851 30.0912 3.76391 29.4797 3.14856C28.8682 2.5332 28.0387 2.1875 27.1739 2.1875Z" fill="#FFFBFB"/>
</g>
<defs>
<clipPath id="clip0_45_538">
<rect width="30.4348" height="35" fill="white"/>
</clipPath>
</defs>
</svg>
