<svg width="30" height="30" viewBox="0 0 30 30" fill="none" xmlns="http://www.w3.org/2000/svg">
<path d="M23.25 6C24.2446 6 25.1984 6.39509 25.9016 7.09835C26.6049 7.80161 27 8.75544 27 9.75V21.75C27 22.7446 26.6049 23.6984 25.9016 24.4016C25.1984 25.1049 24.2446 25.5 23.25 25.5H6.75C5.75544 25.5 4.80161 25.1049 4.09835 24.4016C3.39509 23.6984 3 22.7446 3 21.75V9.75C3 8.75544 3.39509 7.80161 4.09835 7.09835C4.80161 6.39509 5.75544 6 6.75 6H23.25ZM25.5 11.9415L15.381 17.8965C15.2853 17.9527 15.1784 17.9869 15.0679 17.9968C14.9574 18.0066 14.8461 17.9918 14.742 17.9535L14.619 17.8965L4.5 11.9445V21.75C4.5 22.3467 4.73705 22.919 5.15901 23.341C5.58097 23.7629 6.15326 24 6.75 24H23.25C23.8467 24 24.419 23.7629 24.841 23.341C25.2629 22.919 25.5 22.3467 25.5 21.75V11.9415ZM23.25 7.5H6.75C6.15326 7.5 5.58097 7.73705 5.15901 8.15901C4.73705 8.58097 4.5 9.15326 4.5 9.75V10.203L15 16.38L25.5 10.2V9.75C25.5 9.15326 25.2629 8.58097 24.841 8.15901C24.419 7.73705 23.8467 7.5 23.25 7.5Z" fill="#D2C7DF"/>
</svg>
