<svg width="30" height="30" viewBox="0 0 30 30" fill="none" xmlns="http://www.w3.org/2000/svg">
<path d="M26.25 13.535V24.3749C26.25 24.8722 26.0525 25.3491 25.7008 25.7007C25.3492 26.0523 24.8723 26.2499 24.375 26.2499H5.625C5.12772 26.2499 4.65081 26.0523 4.29917 25.7007C3.94754 25.3491 3.75 24.8722 3.75 24.3749V13.535C3.75008 13.2749 3.8043 13.0176 3.90921 12.7795C4.01412 12.5415 4.16743 12.3278 4.35938 12.1522L13.7344 3.6327C14.08 3.31649 14.5315 3.14111 15 3.14111C15.4685 3.14111 15.92 3.31649 16.2656 3.6327L25.6406 12.1522C25.8326 12.3278 25.9859 12.5415 26.0908 12.7795C26.1957 13.0176 26.2499 13.2749 26.25 13.535Z" fill="#D2C7DF"/>
</svg>
