<svg width="35" height="35" viewBox="0 0 35 35" fill="none" xmlns="http://www.w3.org/2000/svg">
<path d="M27.542 2.93417L31.7966 7.30917L28.5531 10.6458L24.2985 6.27083L27.542 2.93417ZM11.9585 23.3333H16.2132L26.5478 12.7065L22.2931 8.33146L11.9585 18.9583V23.3333Z" fill="#888888"/>
<path d="M27.559 27.7083H12.1826C12.1458 27.7083 12.1075 27.7229 12.0706 27.7229C12.0238 27.7229 11.977 27.7098 11.9288 27.7083H7.70388V7.29167H17.4145L20.2509 4.375H7.70388C6.13958 4.375 4.86743 5.68167 4.86743 7.29167V27.7083C4.86743 29.3183 6.13958 30.625 7.70388 30.625H27.559C28.3113 30.625 29.0328 30.3177 29.5647 29.7707C30.0966 29.2237 30.3955 28.4819 30.3955 27.7083V15.0675L27.559 17.9842V27.7083Z" fill="#888888"/>
</svg>
