<svg width="30" height="30" viewBox="0 0 30 30" fill="none" xmlns="http://www.w3.org/2000/svg">
<path d="M13.6083 4.20833C15.4134 4.20669 17.1785 4.74046 18.6802 5.74212C20.1819 6.74379 21.3527 8.16834 22.0447 9.83557C22.7366 11.5028 22.9185 13.3378 22.5673 15.1084C22.2162 16.879 21.3478 18.5057 20.072 19.7827C18.7961 21.0597 17.1702 21.9296 15.3999 22.2824C13.6296 22.6352 11.7945 22.4549 10.1266 21.7645C8.45875 21.0741 7.03312 19.9046 6.03009 18.4038C5.02705 16.903 4.49167 15.1384 4.49167 13.3333C4.50261 10.918 5.46636 8.60468 7.17347 6.89601C8.88057 5.18735 11.1931 4.22148 13.6083 4.20833ZM13.6083 2.5C11.4657 2.5 9.37119 3.13536 7.58965 4.32575C5.80812 5.51613 4.41959 7.20806 3.59964 9.1876C2.77969 11.1671 2.56515 13.3454 2.98316 15.4468C3.40116 17.5483 4.43294 19.4786 5.94801 20.9937C7.46308 22.5087 9.39339 23.5405 11.4949 23.9585C13.5963 24.3765 15.7745 24.162 17.7541 23.342C19.7336 22.5221 21.4255 21.1335 22.6159 19.352C23.8063 17.5705 24.4417 15.476 24.4417 13.3333C24.4417 10.4602 23.3003 7.70465 21.2687 5.67301C19.237 3.64137 16.4815 2.5 13.6083 2.5Z" fill="#888888"/>
<path d="M29.1667 27.7417L23.025 21.5583L21.8417 22.7333L27.9833 28.9167C28.0605 28.9944 28.1522 29.0561 28.2532 29.0984C28.3542 29.1406 28.4626 29.1626 28.5721 29.163C28.6816 29.1634 28.7901 29.1422 28.8914 29.1006C28.9927 29.0591 29.0848 28.998 29.1625 28.9209C29.2402 28.8437 29.3019 28.752 29.3442 28.651C29.3865 28.55 29.4084 28.4416 29.4088 28.3321C29.4092 28.2226 29.388 28.1141 29.3465 28.0128C29.3049 27.9115 29.2438 27.8194 29.1667 27.7417Z" fill="#888888"/>
</svg>
