<svg width="35" height="35" viewBox="0 0 35 35" fill="none" xmlns="http://www.w3.org/2000/svg">
<path d="M21.1744 35H14.7894C14.3894 35.0001 14.0013 34.8637 13.6896 34.6135C13.3779 34.3633 13.1613 34.0144 13.0757 33.6245L12.3617 30.3275C11.4094 29.9112 10.5063 29.3906 9.66918 28.7753L6.44689 29.799C6.06549 29.9203 5.65395 29.9079 5.28062 29.7637C4.9073 29.6195 4.59465 29.3522 4.39459 29.0063L1.1951 23.492C0.997143 23.1457 0.922835 22.7427 0.984333 22.3488C1.04583 21.9549 1.2395 21.5935 1.53364 21.3238L4.03324 19.0487C3.91957 18.0182 3.91957 16.9783 4.03324 15.9478L1.53364 13.678C1.23908 13.4081 1.04515 13.0464 0.983643 12.6521C0.922134 12.2579 0.996694 11.8544 1.1951 11.508L4.38757 5.99025C4.58763 5.6443 4.90028 5.37703 5.27361 5.23283C5.64693 5.08862 6.05847 5.07616 6.43988 5.1975L9.66217 6.22125C10.0902 5.90625 10.5357 5.61225 10.9953 5.34625C11.4391 5.09775 11.8951 4.872 12.3617 4.67075L13.0774 1.37725C13.1626 0.987346 13.3788 0.638204 13.6902 0.38771C14.0016 0.137217 14.3894 0.00041994 14.7894 0H21.1744C21.5744 0.00041994 21.9622 0.137217 22.2736 0.38771C22.585 0.638204 22.8012 0.987346 22.8864 1.37725L23.6091 4.6725C24.1002 4.8895 24.5808 5.13275 25.0457 5.404C25.4789 5.65425 25.8982 5.929 26.3016 6.22475L29.5257 5.201C29.9068 5.0801 30.318 5.0928 30.6909 5.23698C31.0639 5.38116 31.3762 5.64818 31.5762 5.99375L34.7687 11.5115C35.1756 12.2238 35.0353 13.125 34.4301 13.6798L31.9305 15.9547C32.0442 16.9853 32.0442 18.0252 31.9305 19.0557L34.4301 21.3307C35.0353 21.8872 35.1756 22.7868 34.7687 23.499L31.5762 29.0167C31.3761 29.3627 31.0635 29.63 30.6902 29.7742C30.3168 29.9184 29.9053 29.9308 29.5239 29.8095L26.3016 28.7857C25.4651 29.4006 24.5626 29.9206 23.6108 30.3362L22.8864 33.6245C22.8008 34.0141 22.5845 34.3628 22.2731 34.613C21.9618 34.8631 21.5741 34.9997 21.1744 35ZM17.9749 10.5C16.114 10.5 14.3293 11.2375 13.0135 12.5503C11.6977 13.863 10.9584 15.6435 10.9584 17.5C10.9584 19.3565 11.6977 21.137 13.0135 22.4497C14.3293 23.7625 16.114 24.5 17.9749 24.5C19.8357 24.5 21.6204 23.7625 22.9362 22.4497C24.2521 21.137 24.9913 19.3565 24.9913 17.5C24.9913 15.6435 24.2521 13.863 22.9362 12.5503C21.6204 11.2375 19.8357 10.5 17.9749 10.5Z" fill="#888888"/>
</svg>
