<svg width="31" height="35" viewBox="0 0 31 35" fill="none" xmlns="http://www.w3.org/2000/svg">
<g clip-path="url(#clip0_45_540)">
<path d="M15.2244 9.63867C10.9037 9.63867 7.41869 13.1455 7.41869 17.4932C7.41869 21.8408 10.9037 25.3476 15.2244 25.3476C19.545 25.3476 23.0301 21.8408 23.0301 17.4932C23.0301 13.1455 19.545 9.63867 15.2244 9.63867ZM15.2244 22.5996C12.4323 22.5996 10.1497 20.3096 10.1497 17.4932C10.1497 14.6768 12.4255 12.3867 15.2244 12.3867C18.0233 12.3867 20.2991 14.6768 20.2991 17.4932C20.2991 20.3096 18.0165 22.5996 15.2244 22.5996ZM25.17 9.31738C25.17 10.3359 24.3548 11.1494 23.3494 11.1494C22.3372 11.1494 21.5287 10.3291 21.5287 9.31738C21.5287 8.30566 22.344 7.48535 23.3494 7.48535C24.3548 7.48535 25.17 8.30566 25.17 9.31738ZM30.3399 11.1768C30.2244 8.72265 29.6673 6.54883 27.8806 4.75781C26.1007 2.9668 23.9404 2.40625 21.5016 2.2832C18.988 2.13965 11.454 2.13965 8.94042 2.2832C6.50836 2.39941 4.34804 2.95996 2.56135 4.75098C0.774669 6.54199 0.224397 8.71582 0.102114 11.1699C-0.0405486 13.6992 -0.0405486 21.2803 0.102114 23.8096C0.217603 26.2637 0.774669 28.4375 2.56135 30.2285C4.34804 32.0195 6.50157 32.5801 8.94042 32.7031C11.454 32.8467 18.988 32.8467 21.5016 32.7031C23.9404 32.5869 26.1007 32.0264 27.8806 30.2285C29.6605 28.4375 30.2176 26.2637 30.3399 23.8096C30.4825 21.2803 30.4825 13.7061 30.3399 11.1768ZM27.0926 26.5234C26.5627 27.8633 25.5369 28.8955 24.1986 29.4355C22.1945 30.2353 17.4391 30.0508 15.2244 30.0508C13.0097 30.0508 8.24749 30.2285 6.25021 29.4355C4.91869 28.9023 3.89287 27.8701 3.35619 26.5234C2.56135 24.5068 2.74478 19.7217 2.74478 17.4932C2.74478 15.2646 2.56815 10.4727 3.35619 8.46289C3.88608 7.12305 4.91189 6.09082 6.25021 5.55078C8.25428 4.75098 13.0097 4.93555 15.2244 4.93555C17.4391 4.93555 22.2013 4.75781 24.1986 5.55078C25.5301 6.08398 26.5559 7.11621 27.0926 8.46289C27.8874 10.4795 27.704 15.2646 27.704 17.4932C27.704 19.7217 27.8874 24.5137 27.0926 26.5234Z" fill="white"/>
</g>
<defs>
<clipPath id="clip0_45_540">
<rect width="30.4348" height="35" fill="white"/>
</clipPath>
</defs>
</svg>
