<svg width="31" height="35" viewBox="0 0 31 35" fill="none" xmlns="http://www.w3.org/2000/svg">
<g clip-path="url(#clip0_45_542)">
<path d="M28.2609 2.1875H2.16712C0.971467 2.1875 0 3.17871 0 4.39551V30.6045C0 31.8213 0.971467 32.8125 2.16712 32.8125H28.2609C29.4565 32.8125 30.4348 31.8213 30.4348 30.6045V4.39551C30.4348 3.17871 29.4565 2.1875 28.2609 2.1875ZM9.19837 28.4375H4.6875V13.8223H9.20516V28.4375H9.19837ZM6.94293 11.8262C5.49592 11.8262 4.32745 10.6436 4.32745 9.19434C4.32745 7.74512 5.49592 6.5625 6.94293 6.5625C8.38315 6.5625 9.55842 7.74512 9.55842 9.19434C9.55842 10.6504 8.38995 11.8262 6.94293 11.8262ZM26.1073 28.4375H21.5965V21.3281C21.5965 19.6328 21.5625 17.4521 19.2527 17.4521C16.9022 17.4521 16.5421 19.2979 16.5421 21.2051V28.4375H12.0312V13.8223H16.3587V15.8184H16.4198C17.0245 14.6699 18.4986 13.46 20.6929 13.46C25.2582 13.46 26.1073 16.4883 26.1073 20.4258V28.4375Z" fill="white"/>
</g>
<defs>
<clipPath id="clip0_45_542">
<rect width="30.4348" height="35" fill="white"/>
</clipPath>
</defs>
</svg>
