<svg width="30" height="30" viewBox="0 0 30 30" fill="none" xmlns="http://www.w3.org/2000/svg">
<path fill-rule="evenodd" clip-rule="evenodd" d="M22.5 3.75C23.4946 3.75 24.4484 4.14509 25.1517 4.84835C25.8549 5.55161 26.25 6.50544 26.25 7.5V22.5C26.25 23.4946 25.8549 24.4484 25.1517 25.1517C24.4484 25.8549 23.4946 26.25 22.5 26.25H17.5C16.5054 26.25 15.5516 25.8549 14.8484 25.1517C14.1451 24.4484 13.75 23.4946 13.75 22.5V16.25H8.0175L10.8838 19.1163C11.1115 19.352 11.2374 19.6678 11.2346 19.9955C11.2317 20.3232 11.1003 20.6368 10.8685 20.8685C10.6368 21.1003 10.3232 21.2317 9.9955 21.2346C9.66776 21.2374 9.35201 21.1114 9.11625 20.8838L4.11625 15.8837C3.88191 15.6493 3.75027 15.3315 3.75027 15C3.75027 14.6685 3.88191 14.3507 4.11625 14.1163L9.11625 9.11625C9.23156 8.99686 9.36949 8.90163 9.522 8.83612C9.6745 8.77061 9.83853 8.73613 10.0045 8.73469C10.1705 8.73324 10.3351 8.76487 10.4887 8.82772C10.6423 8.89057 10.7819 8.98339 10.8992 9.10076C11.0166 9.21812 11.1094 9.35769 11.1723 9.51131C11.2351 9.66493 11.2668 9.82953 11.2653 9.9955C11.2639 10.1615 11.2294 10.3255 11.1639 10.478C11.0984 10.6305 11.0031 10.7684 10.8838 10.8837L8.0175 13.75H13.75V7.5C13.75 6.50544 14.1451 5.55161 14.8484 4.84835C15.5516 4.14509 16.5054 3.75 17.5 3.75H22.5ZM13.75 13.75H20C20.3315 13.75 20.6495 13.8817 20.8839 14.1161C21.1183 14.3505 21.25 14.6685 21.25 15C21.25 15.3315 21.1183 15.6495 20.8839 15.8839C20.6495 16.1183 20.3315 16.25 20 16.25H13.75V13.75Z" fill="#D2C7DF"/>
</svg>
