<svg width="30" height="30" viewBox="0 0 30 30" fill="none" xmlns="http://www.w3.org/2000/svg">
<path d="M22.5 3.75C23.4946 3.75 24.4484 4.14509 25.1517 4.84835C25.8549 5.55161 26.25 6.50544 26.25 7.5V22.5C26.25 23.4946 25.8549 24.4484 25.1517 25.1517C24.4484 25.8549 23.4946 26.25 22.5 26.25H16.25C15.9185 26.25 15.6005 26.1183 15.3661 25.8839C15.1317 25.6495 15 25.3315 15 25C15 24.6685 15.1317 24.3505 15.3661 24.1161C15.6005 23.8817 15.9185 23.75 16.25 23.75H22.5C22.8315 23.75 23.1495 23.6183 23.3839 23.3839C23.6183 23.1495 23.75 22.8315 23.75 22.5V7.5C23.75 7.16848 23.6183 6.85054 23.3839 6.61612C23.1495 6.3817 22.8315 6.25 22.5 6.25H16.25C15.9185 6.25 15.6005 6.1183 15.3661 5.88388C15.1317 5.64946 15 5.33152 15 5C15 4.66848 15.1317 4.35054 15.3661 4.11612C15.6005 3.8817 15.9185 3.75 16.25 3.75H22.5Z" fill="#D2C7DF"/>
<path d="M10.8838 9.11623C10.6493 8.88189 10.3315 8.75024 10 8.75024C9.66855 8.75024 9.35066 8.88189 9.11625 9.11623L4.11625 14.1162C3.88191 14.3506 3.75027 14.6685 3.75027 15C3.75027 15.3314 3.88191 15.6493 4.11625 15.8837L9.11625 20.8837C9.352 21.1114 9.66776 21.2374 9.9955 21.2346C10.3232 21.2317 10.6368 21.1003 10.8685 20.8685C11.1003 20.6367 11.2317 20.3232 11.2346 19.9955C11.2374 19.6677 11.1114 19.352 10.8838 19.1162L8.0175 16.25H17.5C17.8315 16.25 18.1495 16.1183 18.3839 15.8839C18.6183 15.6494 18.75 15.3315 18.75 15C18.75 14.6685 18.6183 14.3505 18.3839 14.1161C18.1495 13.8817 17.8315 13.75 17.5 13.75H8.0175L10.8838 10.8837C11.1181 10.6493 11.2497 10.3314 11.2497 9.99998C11.2497 9.66852 11.1181 9.35064 10.8838 9.11623Z" fill="#D2C7DF"/>
</svg>
