<svg width="25" height="25" viewBox="0 0 25 25" fill="none" xmlns="http://www.w3.org/2000/svg">
<path d="M14.5833 5.20833C14.3071 5.20833 14.0421 5.09859 13.8468 4.90324C13.6514 4.70789 13.5417 4.44293 13.5417 4.16667C13.5417 3.8904 13.6514 3.62545 13.8468 3.4301C14.0421 3.23475 14.3071 3.125 14.5833 3.125H20.8333C21.1096 3.125 21.3746 3.23475 21.5699 3.4301C21.7653 3.62545 21.875 3.8904 21.875 4.16667V10.4167C21.875 10.6929 21.7653 10.9579 21.5699 11.1532C21.3746 11.3486 21.1096 11.4583 20.8333 11.4583C20.5571 11.4583 20.2921 11.3486 20.0968 11.1532C19.9014 10.9579 19.7917 10.6929 19.7917 10.4167V6.68125L10.1115 16.3615C9.915 16.5512 9.65187 16.6562 9.37875 16.6538C9.10563 16.6515 8.84436 16.5419 8.65123 16.3488C8.4581 16.1556 8.34855 15.8944 8.34617 15.6213C8.3438 15.3481 8.44879 15.085 8.63854 14.8885L18.3187 5.20833H14.5833ZM3.125 7.29167C3.125 6.73913 3.34449 6.20923 3.73519 5.81853C4.12589 5.42783 4.6558 5.20833 5.20833 5.20833H10.4167C10.6929 5.20833 10.9579 5.31808 11.1532 5.51343C11.3486 5.70878 11.4583 5.97373 11.4583 6.25C11.4583 6.52627 11.3486 6.79122 11.1532 6.98657C10.9579 7.18192 10.6929 7.29167 10.4167 7.29167H5.20833V19.7917H17.7083V14.5833C17.7083 14.3071 17.8181 14.0421 18.0134 13.8468C18.2088 13.6514 18.4737 13.5417 18.75 13.5417C19.0263 13.5417 19.2912 13.6514 19.4866 13.8468C19.6819 14.0421 19.7917 14.3071 19.7917 14.5833V19.7917C19.7917 20.3442 19.5722 20.8741 19.1815 21.2648C18.7908 21.6555 18.2609 21.875 17.7083 21.875H5.20833C4.6558 21.875 4.12589 21.6555 3.73519 21.2648C3.34449 20.8741 3.125 20.3442 3.125 19.7917V7.29167Z" fill="#888888"/>
</svg>
