<svg width="25" height="25" viewBox="0 0 25 25" fill="none" xmlns="http://www.w3.org/2000/svg">
<path d="M20.3125 20.3125H4.6875V4.6875H12.5V3.125H4.6875C4.27323 3.12541 3.87604 3.29017 3.5831 3.5831C3.29017 3.87604 3.12541 4.27323 3.125 4.6875V20.3125C3.12541 20.7268 3.29017 21.124 3.5831 21.4169C3.87604 21.7098 4.27323 21.8746 4.6875 21.875H20.3125C20.7268 21.8746 21.124 21.7098 21.4169 21.4169C21.7098 21.124 21.8746 20.7268 21.875 20.3125V12.5H20.3125V20.3125Z" fill="#888888"/>
<path d="M20.3125 20.3125H4.6875V4.6875H12.5V3.125H4.6875C4.27323 3.12541 3.87604 3.29017 3.5831 3.5831C3.29017 3.87604 3.12541 4.27323 3.125 4.6875V20.3125C3.12541 20.7268 3.29017 21.124 3.5831 21.4169C3.87604 21.7098 4.27323 21.8746 4.6875 21.875H20.3125C20.7268 21.8746 21.124 21.7098 21.4169 21.4169C21.7098 21.124 21.8746 20.7268 21.875 20.3125V12.5H20.3125V20.3125Z" fill="#888888"/>
<path d="M20.3125 4.6875V1.5625H18.75V4.6875H15.625V6.25H18.75V9.375H20.3125V6.25H23.4375V4.6875H20.3125Z" fill="#888888"/>
</svg>
