<svg width="30" height="26" viewBox="0 0 30 26" fill="none" xmlns="http://www.w3.org/2000/svg">
<path d="M14.2217 25.0746C13.9829 25.0746 13.7498 25.0449 13.5224 24.9855C13.296 24.9252 13.0754 24.8351 12.8604 24.7154L5.69584 20.8356C5.2182 20.5722 4.84803 20.2192 4.58533 19.7766C4.32263 19.3331 4.19128 18.8359 4.19128 18.2851V11.3878L0.752281 9.48381C0.48958 9.34012 0.298524 9.1605 0.179115 8.94496C0.0597048 8.72942 0 8.48993 0 8.22649C0 7.96305 0.0597048 7.72356 0.179115 7.50802C0.298524 7.29248 0.48958 7.11286 0.752281 6.96917L12.8604 0.359235C13.0754 0.23949 13.296 0.149442 13.5224 0.0890901C13.7498 0.0296965 13.9829 0 14.2217 0C14.4605 0 14.6936 0.0296965 14.921 0.0890901C15.1474 0.149442 15.368 0.23949 15.583 0.359235L29.2315 7.83133C29.4703 7.95108 29.6556 8.12447 29.7875 8.3515C29.9183 8.5795 29.9838 8.82522 29.9838 9.08865V18.2851C29.9838 18.6922 30.0798 18.9442 29.8047 19.2191C29.5305 19.495 29.6375 19.449 29.2315 19.449C28.8255 19.449 28.9325 19.495 28.6583 19.2191C28.3832 18.9442 28.4071 18.3912 28.4071 17.984V9.08865L24.2521 11.3878V18.2851C24.2521 18.8359 24.1208 19.3331 23.8581 19.7766C23.5954 20.2192 23.2252 20.5722 22.7476 20.8356L15.583 24.7154C15.368 24.8351 15.1474 24.9252 14.921 24.9855C14.6936 25.0449 14.4605 25.0746 14.2217 25.0746ZM14.2217 14.8364L27.1179 8.22649L14.2217 1.61656L1.61203 8.22649L14.2217 14.8364ZM14.2217 23.4581L22.8192 19.4346V12.5373L15.6188 16.0937C15.4039 16.2135 15.177 16.3031 14.9382 16.3624C14.6993 16.4228 14.4605 16.453 14.2217 16.453C13.9829 16.453 13.7441 16.4228 13.5052 16.3624C13.2664 16.3031 13.0395 16.2135 12.8246 16.0937L5.73167 12.3218V19.4346L14.2217 23.4581Z" fill="black"/>
</svg>
