<svg width="30" height="26" viewBox="0 0 30 26" fill="none" xmlns="http://www.w3.org/2000/svg">
<path d="M14.2215 25.0747C13.9827 25.0747 13.7496 25.045 13.5223 24.9856C13.2959 24.9252 13.0752 24.8352 12.8602 24.7155L5.69566 20.8357C5.21802 20.5723 4.84785 20.2193 4.58515 19.7767C4.32245 19.3331 4.1911 18.836 4.1911 18.2851V11.3878L0.752098 9.48387C0.489397 9.34018 0.298342 9.16056 0.178932 8.94502C0.0595225 8.72948 -0.000183105 8.48999 -0.000183105 8.22655C-0.000183105 7.96311 0.0595225 7.72362 0.178932 7.50808C0.298342 7.29254 0.489397 7.11292 0.752098 6.96923L12.8602 0.359296C13.0752 0.239551 13.2959 0.149503 13.5223 0.0891514C13.7496 0.0297578 13.9827 6.10352e-05 14.2215 6.10352e-05C14.4603 6.10352e-05 14.6934 0.0297578 14.9208 0.0891514C15.1472 0.149503 15.3678 0.239551 15.5828 0.359296L29.2313 7.83139C29.4701 7.95114 29.6555 8.12453 29.7873 8.35156C29.9182 8.57956 29.9836 8.82528 29.9836 9.08872V18.2851C29.9836 18.6923 30.0796 18.9442 29.8045 19.2191C29.5303 19.495 29.6373 19.4491 29.2313 19.4491C28.8253 19.4491 28.9323 19.495 28.6582 19.2191C28.383 18.9442 28.4069 18.3912 28.4069 17.9841V9.08872L24.2519 11.3878V18.2851C24.2519 18.836 24.1206 19.3331 23.8579 19.7767C23.5952 20.2193 23.225 20.5723 22.7474 20.8357L15.5828 24.7155C15.3678 24.8352 15.1472 24.9252 14.9208 24.9856C14.6934 25.045 14.4603 25.0747 14.2215 25.0747ZM14.2215 16.0938L28.4069 8.22655L14.2215 0.359296L0.334945 8.22655L14.2215 16.0938ZM14.2215 23.4581L22.819 19.4347V12.5374L15.6186 16.0938C15.4037 16.2135 15.1768 16.3031 14.938 16.3625C14.6992 16.4229 14.4603 16.453 14.2215 16.453C13.9827 16.453 13.7439 16.4229 13.5051 16.3625C13.2662 16.3031 13.0394 16.2135 12.8244 16.0938L5.73148 12.3218V19.4347L14.2215 23.4581Z" fill="black"/>
<path d="M14.2215 16.0938L28.4069 8.22655L14.2215 0.359296L0.334945 8.22655L14.2215 16.0938Z" fill="black"/>
</svg>
