<svg width="30" height="30" viewBox="0 0 30 30" fill="none" xmlns="http://www.w3.org/2000/svg">
<path d="M26.25 7.73438H18.1289C18.1035 7.73653 18.0779 7.73348 18.0538 7.72542C18.0296 7.71737 18.0073 7.70446 17.9883 7.6875L14.7305 5.25C14.4461 5.03776 14.1009 4.92271 13.7461 4.92188H8.4375C8.00238 4.92188 7.58508 5.09473 7.2774 5.4024C6.96973 5.71008 6.79688 6.12738 6.79688 6.5625V8.67188H4.6875C4.25238 8.67188 3.83508 8.84473 3.5274 9.1524C3.21973 9.46008 3.04688 9.87738 3.04688 10.3125V23.4375C3.04688 23.8726 3.21973 24.2899 3.5274 24.5976C3.83508 24.9053 4.25238 25.0781 4.6875 25.0781H22.6055C23.0126 25.0781 23.4031 24.9164 23.691 24.6285C23.9789 24.3406 24.1406 23.9501 24.1406 23.543V21.3281H26.3555C26.7626 21.3281 27.1531 21.1664 27.441 20.8785C27.7289 20.5906 27.8906 20.2001 27.8906 19.793V9.375C27.8906 8.93988 27.7178 8.52258 27.4101 8.2149C27.1024 7.90723 26.6851 7.73438 26.25 7.73438ZM22.7344 23.543C22.7344 23.5772 22.7208 23.6099 22.6966 23.6341C22.6724 23.6583 22.6397 23.6719 22.6055 23.6719H4.6875C4.62534 23.6719 4.56573 23.6472 4.52177 23.6032C4.47782 23.5593 4.45312 23.4997 4.45312 23.4375V10.3125C4.45312 10.2503 4.47782 10.1907 4.52177 10.1468C4.56573 10.1028 4.62534 10.0781 4.6875 10.0781H9.99609C10.0215 10.076 10.0471 10.079 10.0712 10.0871C10.0954 10.0951 10.1177 10.108 10.1367 10.125L13.3945 12.5625C13.6789 12.7747 14.0241 12.8898 14.3789 12.8906H22.5C22.5622 12.8906 22.6218 12.9153 22.6657 12.9593C22.7097 13.0032 22.7344 13.0628 22.7344 13.125V23.543ZM26.4844 19.793C26.4844 19.8272 26.4708 19.8599 26.4466 19.8841C26.4224 19.9083 26.3897 19.9219 26.3555 19.9219H24.1406V13.125C24.1406 12.6899 23.9678 12.2726 23.6601 11.9649C23.3524 11.6572 22.9351 11.4844 22.5 11.4844H14.3789C14.3535 11.4865 14.3279 11.4835 14.3038 11.4754C14.2796 11.4674 14.2573 11.4545 14.2383 11.4375L10.9805 9C10.6961 8.78776 10.3509 8.67271 9.99609 8.67188H8.20312V6.5625C8.20312 6.50034 8.22782 6.44073 8.27177 6.39677C8.31573 6.35282 8.37534 6.32812 8.4375 6.32812H13.7461C13.7715 6.32597 13.7971 6.32902 13.8212 6.33708C13.8454 6.34514 13.8677 6.35804 13.8867 6.375L17.1445 8.8125C17.4289 9.02474 17.7741 9.13979 18.1289 9.14062H26.25C26.3122 9.14062 26.3718 9.16532 26.4157 9.20927C26.4597 9.25323 26.4844 9.31284 26.4844 9.375V19.793Z" fill="#D2C7DF"/>
</svg>
