<svg width="30" height="30" viewBox="0 0 30 30" fill="none" xmlns="http://www.w3.org/2000/svg">
<path d="M26.25 7.50007H18.1289L14.8711 5.06257C14.5482 4.81603 14.1523 4.68409 13.7461 4.68757H8.4375C7.94022 4.68757 7.46331 4.88511 7.11167 5.23674C6.76004 5.58837 6.5625 6.06529 6.5625 6.56257V8.43757H4.6875C4.19022 8.43757 3.71331 8.63511 3.36167 8.98674C3.01004 9.33837 2.8125 9.81529 2.8125 10.3126V23.4376C2.8125 23.9348 3.01004 24.4118 3.36167 24.7634C3.71331 25.115 4.19022 25.3126 4.6875 25.3126H22.6055C23.0738 25.3095 23.5221 25.1221 23.8533 24.7909C24.1845 24.4597 24.3719 24.0114 24.375 23.543V21.5626H26.3555C26.8238 21.5595 27.2721 21.3721 27.6033 21.0409C27.9345 20.7097 28.1219 20.2614 28.125 19.793V9.37507C28.125 8.87779 27.9275 8.40087 27.5758 8.04924C27.2242 7.69761 26.7473 7.50007 26.25 7.50007ZM26.25 19.6876H24.375V13.1251C24.375 12.6278 24.1775 12.1509 23.8258 11.7992C23.4742 11.4476 22.9973 11.2501 22.5 11.2501H14.3789L11.1211 8.81257C10.7982 8.56603 10.4023 8.43409 9.99609 8.43757H8.4375V6.56257H13.7461L17.0039 9.00007C17.3268 9.2466 17.7227 9.37854 18.1289 9.37507H26.25V19.6876Z" fill="#D2C7DF"/>
</svg>
