<svg width="30" height="30" viewBox="0 0 30 30" fill="none" xmlns="http://www.w3.org/2000/svg">
<path d="M24.375 26.0157H5.625C5.18988 26.0157 4.77258 25.8429 4.4649 25.5352C4.15723 25.2275 3.98438 24.8102 3.98438 24.3751V13.5353C3.98488 13.3076 4.03311 13.0825 4.12596 12.8746C4.21881 12.6667 4.35421 12.4806 4.52344 12.3282L13.8984 3.79698C14.2014 3.52602 14.5936 3.37622 15 3.37622C15.4064 3.37622 15.7986 3.52602 16.1016 3.79698L25.4766 12.3282C25.6458 12.4806 25.7812 12.6667 25.874 12.8746C25.9669 13.0825 26.0151 13.3076 26.0156 13.5353V24.3751C26.0156 24.8102 25.8428 25.2275 25.5351 25.5352C25.2274 25.8429 24.8101 26.0157 24.375 26.0157ZM15 4.78136C14.9436 4.7809 14.8892 4.80184 14.8477 4.83995L5.47266 13.3712C5.44608 13.3892 5.42457 13.4138 5.41021 13.4425C5.39584 13.4712 5.3891 13.5032 5.39062 13.5353V24.3751C5.39062 24.4373 5.41532 24.4969 5.45927 24.5408C5.50323 24.5848 5.56284 24.6095 5.625 24.6095H24.375C24.4372 24.6095 24.4968 24.5848 24.5407 24.5408C24.5847 24.4969 24.6094 24.4373 24.6094 24.3751V13.5353C24.6104 13.5044 24.6046 13.4738 24.5924 13.4454C24.5803 13.4171 24.5621 13.3917 24.5391 13.3712L15.1523 4.83995C15.1108 4.80184 15.0564 4.7809 15 4.78136Z" fill="#D2C7DF"/>
</svg>
