<svg width="40" height="54" viewBox="0 0 40 54" fill="none" xmlns="http://www.w3.org/2000/svg">
<g clip-path="url(#clip0_45_559)">
<path d="M10.1166 38.2462C9.21142 37.3297 9.6833 37.5881 7.49996 36.9964C6.50934 36.7275 5.6385 36.2107 4.851 35.5916L0.124962 47.3239C-0.33233 48.4598 0.521837 49.6938 1.73225 49.6474L7.2208 49.4354L10.9958 53.4728C11.8291 54.3629 13.2916 54.0855 13.7489 52.9496L19.1708 39.4897C18.0416 40.1268 16.7885 40.5001 15.4927 40.5001C13.4614 40.5001 11.5531 39.6996 10.1166 38.2462ZM39.875 47.3239L35.1489 35.5916C34.3614 36.2118 33.4906 36.7275 32.5 36.9964C30.3052 37.5913 30.7864 37.3318 29.8833 38.2462C28.4468 39.6996 26.5375 40.5001 24.5062 40.5001C23.2104 40.5001 21.9573 40.1257 20.8281 39.4897L26.25 52.9496C26.7073 54.0855 28.1708 54.3629 29.0031 53.4728L32.7791 49.4354L38.2677 49.6474C39.4781 49.6938 40.3323 48.4588 39.875 47.3239ZM27.3958 35.8595C28.9875 34.2194 29.1698 34.3608 31.4364 33.7353C32.8833 33.3356 34.0145 32.1702 34.4021 30.6789C35.1812 27.6835 34.9791 28.0453 37.1052 25.8537C38.1646 24.7621 38.5781 23.1705 38.1906 21.6792C37.4125 18.686 37.4114 19.1037 38.1906 16.1073C38.5781 14.616 38.1646 13.0245 37.1052 11.9328C34.9791 9.74121 35.1812 10.1019 34.4021 7.10766C34.0145 5.61633 32.8833 4.4509 31.4364 4.05117C28.5323 3.24855 28.8823 3.45844 26.7541 1.26574C25.6948 0.174141 24.15 -0.253007 22.7031 0.14672C19.8 0.948282 20.2052 0.949337 17.2968 0.14672C15.85 -0.253007 14.3052 0.173087 13.2458 1.26574C11.1198 3.45738 11.4698 3.24855 8.56455 4.05117C7.11767 4.4509 5.98642 5.61633 5.59892 7.10766C4.8208 10.1019 5.02184 9.74121 2.8958 11.9328C1.83642 13.0245 1.42184 14.616 1.81038 16.1073C2.5885 19.0984 2.58955 18.6807 1.81038 21.6782C1.42288 23.1695 1.83642 24.761 2.8958 25.8537C5.02184 28.0453 4.81975 27.6835 5.59892 30.6789C5.98642 32.1702 7.11767 33.3356 8.56455 33.7353C10.8958 34.3787 11.0698 34.2775 12.6041 35.8595C13.9823 37.2801 16.1291 37.5343 17.7854 36.4733C18.4477 36.0476 19.216 35.8215 20.0005 35.8215C20.785 35.8215 21.5533 36.0476 22.2156 36.4733C23.8708 37.5343 26.0177 37.2801 27.3958 35.8595ZM10.1729 18.5584C10.1729 12.9654 14.5729 8.43129 20 8.43129C25.427 8.43129 29.827 12.9654 29.827 18.5584C29.827 24.1514 25.427 28.6855 20 28.6855C14.5729 28.6855 10.1729 24.1514 10.1729 18.5584Z" fill="#FF6464"/>
</g>
<defs>
<clipPath id="clip0_45_559">
<rect width="40" height="54" fill="white"/>
</clipPath>
</defs>
</svg>
