<svg width="30" height="30" viewBox="0 0 50 50" fill="none" xmlns="http://www.w3.org/2000/svg">
<path d="M27.5 15C27.5 16.9891 26.7098 18.8968 25.3033 20.3033C23.8968 21.7098 21.9891 22.5 20 22.5C18.0109 22.5 16.1032 21.7098 14.6967 20.3033C13.2902 18.8968 12.5 16.9891 12.5 15C12.5 13.0109 13.2902 11.1032 14.6967 9.6967C16.1032 8.29018 18.0109 7.5 20 7.5C21.9891 7.5 23.8968 8.29018 25.3033 9.6967C26.7098 11.1032 27.5 13.0109 27.5 15V15ZM35 42.5C35 38.5218 33.4196 34.7064 30.6066 31.8934C27.7936 29.0804 23.9782 27.5 20 27.5C16.0218 27.5 12.2064 29.0804 9.3934 31.8934C6.58035 34.7064 5 38.5218 5 42.5H35ZM32.5 20C31.837 20 31.2011 20.2634 30.7322 20.7322C30.2634 21.2011 30 21.837 30 22.5C30 23.163 30.2634 23.7989 30.7322 24.2678C31.2011 24.7366 31.837 25 32.5 25H42.5C43.163 25 43.7989 24.7366 44.2678 24.2678C44.7366 23.7989 45 23.163 45 22.5C45 21.837 44.7366 21.2011 44.2678 20.7322C43.7989 20.2634 43.163 20 42.5 20H32.5Z" fill="#A19EF9"/>
</svg>
